<?xml version="1.0" encoding="us-ascii" standalone="no"?><svg xmlns="http://www.w3.org/2000/svg" xmlns:xlink="http://www.w3.org/1999/xlink" contentStyleType="text/css" height="671px" preserveAspectRatio="none" style="width:971px;height:671px;background:#FFFFFF;" version="1.1" viewBox="0 0 971 671" width="971px" zoomAndPan="magnify"><defs/><g><!--cluster MetalKit--><g id="cluster_MetalKit"><path d="M8.5,6 L78.5,6 A3.75,3.75 0 0 1 81,8.5 L88,28.2969 L463.5,28.2969 A2.5,2.5 0 0 1 466,30.7969 L466,661.5 A2.5,2.5 0 0 1 463.5,664 L8.5,664 A2.5,2.5 0 0 1 6,661.5 L6,8.5 A2.5,2.5 0 0 1 8.5,6 " fill="none" style="stroke:#000000;stroke-width:1.5;"/><line style="stroke:#000000;stroke-width:1.5;" x1="6" x2="88" y1="28.2969" y2="28.2969"/><text fill="#000000" font-family="sans-serif" font-size="14" font-weight="bold" lengthAdjust="spacing" textLength="69" x="10" y="20.9951">MetalKit</text></g><!--cluster ModelIO--><g id="cluster_ModelIO"><path d="M492.5,14 L558.5,14 A3.75,3.75 0 0 1 561,16.5 L568,36.2969 L961.5,36.2969 A2.5,2.5 0 0 1 964,38.7969 L964,653.5 A2.5,2.5 0 0 1 961.5,656 L492.5,656 A2.5,2.5 0 0 1 490,653.5 L490,16.5 A2.5,2.5 0 0 1 492.5,14 " fill="none" style="stroke:#000000;stroke-width:1.5;"/><line style="stroke:#000000;stroke-width:1.5;" x1="490" x2="568" y1="36.2969" y2="36.2969"/><text fill="#000000" font-family="sans-serif" font-size="14" font-weight="bold" lengthAdjust="spacing" textLength="65" x="494" y="28.9951">ModelIO</text></g><!--class MTKMesh--><g id="elem_MTKMesh"><rect codeLine="2" fill="#F1F1F1" height="162.0781" id="MTKMesh" rx="2.5" ry="2.5" style="stroke:#181818;stroke-width:0.5;" width="314" x="79" y="41"/><ellipse cx="197.75" cy="57" fill="#ADD1B2" rx="11" ry="11" style="stroke:#181818;stroke-width:1.0;"/><path d="M200.0938,52.6719 C199.1563,52.2344 198.5625,52.0938 197.6875,52.0938 C195.0625,52.0938 193.0625,54.1719 193.0625,56.8906 L193.0625,58.0156 C193.0625,60.5938 195.1719,62.4844 198.0625,62.4844 C199.2813,62.4844 200.4375,62.1875 201.1875,61.6406 C201.7656,61.2344 202.0938,60.7813 202.0938,60.3906 C202.0938,59.9375 201.7031,59.5469 201.2344,59.5469 C201.0156,59.5469 200.8125,59.625 200.625,59.8125 C200.1719,60.2969 200.1719,60.2969 199.9844,60.3906 C199.5625,60.6563 198.875,60.7813 198.1094,60.7813 C196.0625,60.7813 194.7656,59.6875 194.7656,57.9844 L194.7656,56.8906 C194.7656,55.1094 196.0156,53.7969 197.75,53.7969 C198.3281,53.7969 198.9375,53.9531 199.4063,54.2031 C199.8906,54.4844 200.0625,54.7031 200.1563,55.1094 C200.2188,55.5156 200.25,55.6406 200.3906,55.7656 C200.5313,55.9063 200.7656,56.0156 200.9844,56.0156 C201.25,56.0156 201.5156,55.875 201.6875,55.6563 C201.7969,55.5 201.8281,55.3125 201.8281,54.8906 L201.8281,53.4688 C201.8281,53.0313 201.8125,52.9063 201.7188,52.75 C201.5625,52.4844 201.2813,52.3438 200.9844,52.3438 C200.6875,52.3438 200.4844,52.4375 200.2656,52.75 L200.0938,52.6719 Z " fill="#000000"/><text fill="#000000" font-family="sans-serif" font-size="14" lengthAdjust="spacing" textLength="68" x="218.25" y="61.8467">MTKMesh</text><line style="stroke:#181818;stroke-width:0.5;" x1="80" x2="392" y1="73" y2="73"/><ellipse cx="90" cy="86.6484" fill="none" rx="3" ry="3" style="stroke:#038048;stroke-width:1.0;"/><text fill="#000000" font-family="sans-serif" font-size="14" lengthAdjust="spacing" textLength="196" x="99" y="89.9951">submeshes: [MTKSubmesh]</text><ellipse cx="90" cy="102.9453" fill="none" rx="3" ry="3" style="stroke:#038048;stroke-width:1.0;"/><text fill="#000000" font-family="sans-serif" font-size="14" lengthAdjust="spacing" textLength="231" x="99" y="106.292">vertexBuffers: [MTKMeshBuffer]</text><ellipse cx="90" cy="119.2422" fill="none" rx="3" ry="3" style="stroke:#038048;stroke-width:1.0;"/><text fill="#000000" font-family="sans-serif" font-size="14" lengthAdjust="spacing" textLength="288" x="99" y="122.5889">vertexDescriptor: MTLVertexDescriptor</text><ellipse cx="90" cy="135.5391" fill="none" rx="3" ry="3" style="stroke:#038048;stroke-width:1.0;"/><text fill="#000000" font-family="sans-serif" font-size="14" lengthAdjust="spacing" textLength="119" x="99" y="138.8857">vertexCount: Int</text><ellipse cx="90" cy="151.8359" fill="none" rx="3" ry="3" style="stroke:#038048;stroke-width:1.0;"/><text fill="#000000" font-family="sans-serif" font-size="14" lengthAdjust="spacing" textLength="93" x="99" y="155.1826">name: String</text><line style="stroke:#181818;stroke-width:0.5;" x1="80" x2="392" y1="162.4844" y2="162.4844"/><ellipse cx="90" cy="176.1328" fill="#84BE84" rx="3" ry="3" style="stroke:#038048;stroke-width:1.0;"/><text fill="#000000" font-family="sans-serif" font-size="14" lengthAdjust="spacing" textLength="134" x="99" y="179.4795">init(mesh:,device:)</text><ellipse cx="90" cy="192.4297" fill="#84BE84" rx="3" ry="3" style="stroke:#038048;stroke-width:1.0;"/><text fill="#000000" font-family="sans-serif" font-size="14" lengthAdjust="spacing" textLength="264" x="99" y="195.7764">class func newMeshes(asset:,device:)</text></g><!--class MTKSubmesh--><g id="elem_MTKSubmesh"><rect codeLine="13" fill="#F1F1F1" height="145.7813" id="MTKSubmesh" rx="2.5" ry="2.5" style="stroke:#181818;stroke-width:0.5;" width="267" x="22.5" y="288"/><ellipse cx="103.25" cy="304" fill="#ADD1B2" rx="11" ry="11" style="stroke:#181818;stroke-width:1.0;"/><path d="M105.5938,299.6719 C104.6563,299.2344 104.0625,299.0938 103.1875,299.0938 C100.5625,299.0938 98.5625,301.1719 98.5625,303.8906 L98.5625,305.0156 C98.5625,307.5938 100.6719,309.4844 103.5625,309.4844 C104.7813,309.4844 105.9375,309.1875 106.6875,308.6406 C107.2656,308.2344 107.5938,307.7813 107.5938,307.3906 C107.5938,306.9375 107.2031,306.5469 106.7344,306.5469 C106.5156,306.5469 106.3125,306.625 106.125,306.8125 C105.6719,307.2969 105.6719,307.2969 105.4844,307.3906 C105.0625,307.6563 104.375,307.7813 103.6094,307.7813 C101.5625,307.7813 100.2656,306.6875 100.2656,304.9844 L100.2656,303.8906 C100.2656,302.1094 101.5156,300.7969 103.25,300.7969 C103.8281,300.7969 104.4375,300.9531 104.9063,301.2031 C105.3906,301.4844 105.5625,301.7031 105.6563,302.1094 C105.7188,302.5156 105.75,302.6406 105.8906,302.7656 C106.0313,302.9063 106.2656,303.0156 106.4844,303.0156 C106.75,303.0156 107.0156,302.875 107.1875,302.6563 C107.2969,302.5 107.3281,302.3125 107.3281,301.8906 L107.3281,300.4688 C107.3281,300.0313 107.3125,299.9063 107.2188,299.75 C107.0625,299.4844 106.7813,299.3438 106.4844,299.3438 C106.1875,299.3438 105.9844,299.4375 105.7656,299.75 L105.5938,299.6719 Z " fill="#000000"/><text fill="#000000" font-family="sans-serif" font-size="14" lengthAdjust="spacing" textLength="97" x="123.75" y="308.8467">MTKSubmesh</text><line style="stroke:#181818;stroke-width:0.5;" x1="23.5" x2="288.5" y1="320" y2="320"/><ellipse cx="33.5" cy="333.6484" fill="none" rx="3" ry="3" style="stroke:#038048;stroke-width:1.0;"/><text fill="#000000" font-family="sans-serif" font-size="14" lengthAdjust="spacing" textLength="206" x="42.5" y="336.9951">indexBuffer: MTKMeshBuffer</text><ellipse cx="33.5" cy="349.9453" fill="none" rx="3" ry="3" style="stroke:#038048;stroke-width:1.0;"/><text fill="#000000" font-family="sans-serif" font-size="14" lengthAdjust="spacing" textLength="111" x="42.5" y="353.292">indexCount: Int</text><ellipse cx="33.5" cy="366.2422" fill="none" rx="3" ry="3" style="stroke:#038048;stroke-width:1.0;"/><text fill="#000000" font-family="sans-serif" font-size="14" lengthAdjust="spacing" textLength="188" x="42.5" y="369.5889">indexType: MTLIndexType</text><ellipse cx="33.5" cy="382.5391" fill="none" rx="3" ry="3" style="stroke:#038048;stroke-width:1.0;"/><text fill="#000000" font-family="sans-serif" font-size="14" lengthAdjust="spacing" textLength="116" x="42.5" y="385.8857">mesh: MTKMesh</text><ellipse cx="33.5" cy="398.8359" fill="none" rx="3" ry="3" style="stroke:#038048;stroke-width:1.0;"/><text fill="#000000" font-family="sans-serif" font-size="14" lengthAdjust="spacing" textLength="93" x="42.5" y="402.1826">name: String</text><ellipse cx="33.5" cy="415.1328" fill="none" rx="3" ry="3" style="stroke:#038048;stroke-width:1.0;"/><text fill="#000000" font-family="sans-serif" font-size="14" lengthAdjust="spacing" textLength="241" x="42.5" y="418.4795">primitiveType: MTLPrimitiveType</text><line style="stroke:#181818;stroke-width:0.5;" x1="23.5" x2="288.5" y1="425.7813" y2="425.7813"/></g><!--class MTKMeshBuffer--><g id="elem_MTKMeshBuffer"><rect codeLine="22" fill="#F1F1F1" height="129.4844" id="MTKMeshBuffer" rx="2.5" ry="2.5" style="stroke:#181818;stroke-width:0.5;" width="276" x="98" y="519"/><ellipse cx="175.25" cy="535" fill="#ADD1B2" rx="11" ry="11" style="stroke:#181818;stroke-width:1.0;"/><path d="M177.5938,530.6719 C176.6563,530.2344 176.0625,530.0938 175.1875,530.0938 C172.5625,530.0938 170.5625,532.1719 170.5625,534.8906 L170.5625,536.0156 C170.5625,538.5938 172.6719,540.4844 175.5625,540.4844 C176.7813,540.4844 177.9375,540.1875 178.6875,539.6406 C179.2656,539.2344 179.5938,538.7813 179.5938,538.3906 C179.5938,537.9375 179.2031,537.5469 178.7344,537.5469 C178.5156,537.5469 178.3125,537.625 178.125,537.8125 C177.6719,538.2969 177.6719,538.2969 177.4844,538.3906 C177.0625,538.6563 176.375,538.7813 175.6094,538.7813 C173.5625,538.7813 172.2656,537.6875 172.2656,535.9844 L172.2656,534.8906 C172.2656,533.1094 173.5156,531.7969 175.25,531.7969 C175.8281,531.7969 176.4375,531.9531 176.9063,532.2031 C177.3906,532.4844 177.5625,532.7031 177.6563,533.1094 C177.7188,533.5156 177.75,533.6406 177.8906,533.7656 C178.0313,533.9063 178.2656,534.0156 178.4844,534.0156 C178.75,534.0156 179.0156,533.875 179.1875,533.6563 C179.2969,533.5 179.3281,533.3125 179.3281,532.8906 L179.3281,531.4688 C179.3281,531.0313 179.3125,530.9063 179.2188,530.75 C179.0625,530.4844 178.7813,530.3438 178.4844,530.3438 C178.1875,530.3438 177.9844,530.4375 177.7656,530.75 L177.5938,530.6719 Z " fill="#000000"/><text fill="#000000" font-family="sans-serif" font-size="14" lengthAdjust="spacing" textLength="113" x="195.75" y="539.8467">MTKMeshBuffer</text><line style="stroke:#181818;stroke-width:0.5;" x1="99" x2="373" y1="551" y2="551"/><ellipse cx="109" cy="564.6484" fill="none" rx="3" ry="3" style="stroke:#038048;stroke-width:1.0;"/><text fill="#000000" font-family="sans-serif" font-size="14" lengthAdjust="spacing" textLength="250" x="118" y="567.9951">allocator: MTKMeshBufferAllocator</text><ellipse cx="109" cy="580.9453" fill="none" rx="3" ry="3" style="stroke:#038048;stroke-width:1.0;"/><text fill="#000000" font-family="sans-serif" font-size="14" lengthAdjust="spacing" textLength="128" x="118" y="584.292">buffer: MTLBuffer</text><ellipse cx="109" cy="597.2422" fill="none" rx="3" ry="3" style="stroke:#038048;stroke-width:1.0;"/><text fill="#000000" font-family="sans-serif" font-size="14" lengthAdjust="spacing" textLength="73" x="118" y="600.5889">offset: Int</text><ellipse cx="109" cy="613.5391" fill="none" rx="3" ry="3" style="stroke:#038048;stroke-width:1.0;"/><text fill="#000000" font-family="sans-serif" font-size="14" lengthAdjust="spacing" textLength="76" x="118" y="616.8857">length: Int</text><ellipse cx="109" cy="629.8359" fill="none" rx="3" ry="3" style="stroke:#038048;stroke-width:1.0;"/><text fill="#000000" font-family="sans-serif" font-size="14" lengthAdjust="spacing" textLength="192" x="118" y="633.1826">type: MTKMeshBufferType</text><line style="stroke:#181818;stroke-width:0.5;" x1="99" x2="373" y1="640.4844" y2="640.4844"/></g><!--class MDLMesh--><g id="elem_MDLMesh"><rect codeLine="36" fill="#F1F1F1" height="145.7813" id="MDLMesh" rx="2.5" ry="2.5" style="stroke:#181818;stroke-width:0.5;" width="337" x="558.5" y="49"/><ellipse cx="688.75" cy="65" fill="#ADD1B2" rx="11" ry="11" style="stroke:#181818;stroke-width:1.0;"/><path d="M691.0938,60.6719 C690.1563,60.2344 689.5625,60.0938 688.6875,60.0938 C686.0625,60.0938 684.0625,62.1719 684.0625,64.8906 L684.0625,66.0156 C684.0625,68.5938 686.1719,70.4844 689.0625,70.4844 C690.2813,70.4844 691.4375,70.1875 692.1875,69.6406 C692.7656,69.2344 693.0938,68.7813 693.0938,68.3906 C693.0938,67.9375 692.7031,67.5469 692.2344,67.5469 C692.0156,67.5469 691.8125,67.625 691.625,67.8125 C691.1719,68.2969 691.1719,68.2969 690.9844,68.3906 C690.5625,68.6563 689.875,68.7813 689.1094,68.7813 C687.0625,68.7813 685.7656,67.6875 685.7656,65.9844 L685.7656,64.8906 C685.7656,63.1094 687.0156,61.7969 688.75,61.7969 C689.3281,61.7969 689.9375,61.9531 690.4063,62.2031 C690.8906,62.4844 691.0625,62.7031 691.1563,63.1094 C691.2188,63.5156 691.25,63.6406 691.3906,63.7656 C691.5313,63.9063 691.7656,64.0156 691.9844,64.0156 C692.25,64.0156 692.5156,63.875 692.6875,63.6563 C692.7969,63.5 692.8281,63.3125 692.8281,62.8906 L692.8281,61.4688 C692.8281,61.0313 692.8125,60.9063 692.7188,60.75 C692.5625,60.4844 692.2813,60.3438 691.9844,60.3438 C691.6875,60.3438 691.4844,60.4375 691.2656,60.75 L691.0938,60.6719 Z " fill="#000000"/><text fill="#000000" font-family="sans-serif" font-size="14" lengthAdjust="spacing" textLength="68" x="709.25" y="69.8467">MDLMesh</text><line style="stroke:#181818;stroke-width:0.5;" x1="559.5" x2="894.5" y1="81" y2="81"/><ellipse cx="569.5" cy="94.6484" fill="none" rx="3" ry="3" style="stroke:#038048;stroke-width:1.0;"/><text fill="#000000" font-family="sans-serif" font-size="14" lengthAdjust="spacing" textLength="196" x="578.5" y="97.9951">submeshes: [MDLSubmesh]</text><ellipse cx="569.5" cy="110.9453" fill="none" rx="3" ry="3" style="stroke:#038048;stroke-width:1.0;"/><text fill="#000000" font-family="sans-serif" font-size="14" lengthAdjust="spacing" textLength="231" x="578.5" y="114.292">vertexBuffers: [MDLMeshBuffer]</text><ellipse cx="569.5" cy="127.2422" fill="none" rx="3" ry="3" style="stroke:#038048;stroke-width:1.0;"/><text fill="#000000" font-family="sans-serif" font-size="14" lengthAdjust="spacing" textLength="290" x="578.5" y="130.5889">vertexDescriptor: MDLVertexDescriptor</text><ellipse cx="569.5" cy="143.5391" fill="none" rx="3" ry="3" style="stroke:#038048;stroke-width:1.0;"/><text fill="#000000" font-family="sans-serif" font-size="14" lengthAdjust="spacing" textLength="119" x="578.5" y="146.8857">vertexCount: Int</text><ellipse cx="569.5" cy="159.8359" fill="none" rx="3" ry="3" style="stroke:#038048;stroke-width:1.0;"/><text fill="#000000" font-family="sans-serif" font-size="14" lengthAdjust="spacing" textLength="250" x="578.5" y="163.1826">allocator: MDLMeshBufferAllocator</text><ellipse cx="569.5" cy="176.1328" fill="none" rx="3" ry="3" style="stroke:#038048;stroke-width:1.0;"/><text fill="#000000" font-family="sans-serif" font-size="14" lengthAdjust="spacing" textLength="311" x="578.5" y="179.4795">boundingBox: MDLAxisAlignedBoundingBox</text><line style="stroke:#181818;stroke-width:0.5;" x1="559.5" x2="894.5" y1="186.7813" y2="186.7813"/></g><!--class MDLSubmesh--><g id="elem_MDLSubmesh"><rect codeLine="45" fill="#F1F1F1" height="162.0781" id="MDLSubmesh" rx="2.5" ry="2.5" style="stroke:#181818;stroke-width:0.5;" width="282" x="506" y="280"/><ellipse cx="594.25" cy="296" fill="#ADD1B2" rx="11" ry="11" style="stroke:#181818;stroke-width:1.0;"/><path d="M596.5938,291.6719 C595.6563,291.2344 595.0625,291.0938 594.1875,291.0938 C591.5625,291.0938 589.5625,293.1719 589.5625,295.8906 L589.5625,297.0156 C589.5625,299.5938 591.6719,301.4844 594.5625,301.4844 C595.7813,301.4844 596.9375,301.1875 597.6875,300.6406 C598.2656,300.2344 598.5938,299.7813 598.5938,299.3906 C598.5938,298.9375 598.2031,298.5469 597.7344,298.5469 C597.5156,298.5469 597.3125,298.625 597.125,298.8125 C596.6719,299.2969 596.6719,299.2969 596.4844,299.3906 C596.0625,299.6563 595.375,299.7813 594.6094,299.7813 C592.5625,299.7813 591.2656,298.6875 591.2656,296.9844 L591.2656,295.8906 C591.2656,294.1094 592.5156,292.7969 594.25,292.7969 C594.8281,292.7969 595.4375,292.9531 595.9063,293.2031 C596.3906,293.4844 596.5625,293.7031 596.6563,294.1094 C596.7188,294.5156 596.75,294.6406 596.8906,294.7656 C597.0313,294.9063 597.2656,295.0156 597.4844,295.0156 C597.75,295.0156 598.0156,294.875 598.1875,294.6563 C598.2969,294.5 598.3281,294.3125 598.3281,293.8906 L598.3281,292.4688 C598.3281,292.0313 598.3125,291.9063 598.2188,291.75 C598.0625,291.4844 597.7813,291.3438 597.4844,291.3438 C597.1875,291.3438 596.9844,291.4375 596.7656,291.75 L596.5938,291.6719 Z " fill="#000000"/><text fill="#000000" font-family="sans-serif" font-size="14" lengthAdjust="spacing" textLength="97" x="614.75" y="300.8467">MDLSubmesh</text><line style="stroke:#181818;stroke-width:0.5;" x1="507" x2="787" y1="312" y2="312"/><ellipse cx="517" cy="325.6484" fill="none" rx="3" ry="3" style="stroke:#038048;stroke-width:1.0;"/><text fill="#000000" font-family="sans-serif" font-size="14" lengthAdjust="spacing" textLength="206" x="526" y="328.9951">indexBuffer: MDLMeshBuffer</text><ellipse cx="517" cy="341.9453" fill="none" rx="3" ry="3" style="stroke:#038048;stroke-width:1.0;"/><text fill="#000000" font-family="sans-serif" font-size="14" lengthAdjust="spacing" textLength="111" x="526" y="345.292">indexCount: Int</text><ellipse cx="517" cy="358.2422" fill="none" rx="3" ry="3" style="stroke:#038048;stroke-width:1.0;"/><text fill="#000000" font-family="sans-serif" font-size="14" lengthAdjust="spacing" textLength="221" x="526" y="361.5889">indexType: MDLIndexBitDepth</text><ellipse cx="517" cy="374.5391" fill="none" rx="3" ry="3" style="stroke:#038048;stroke-width:1.0;"/><text fill="#000000" font-family="sans-serif" font-size="14" lengthAdjust="spacing" textLength="256" x="526" y="377.8857">geometryType: MDLGeometryType</text><ellipse cx="517" cy="390.8359" fill="none" rx="3" ry="3" style="stroke:#038048;stroke-width:1.0;"/><text fill="#000000" font-family="sans-serif" font-size="14" lengthAdjust="spacing" textLength="245" x="526" y="394.1826">topology: MDLSubmeshTopology?</text><ellipse cx="517" cy="407.1328" fill="none" rx="3" ry="3" style="stroke:#038048;stroke-width:1.0;"/><text fill="#000000" font-family="sans-serif" font-size="14" lengthAdjust="spacing" textLength="165" x="526" y="410.4795">material: MDLMaterial?</text><ellipse cx="517" cy="423.4297" fill="none" rx="3" ry="3" style="stroke:#038048;stroke-width:1.0;"/><text fill="#000000" font-family="sans-serif" font-size="14" lengthAdjust="spacing" textLength="93" x="526" y="426.7764">name: String</text><line style="stroke:#181818;stroke-width:0.5;" x1="507" x2="787" y1="434.0781" y2="434.0781"/></g><!--class MDLMeshBuffer--><g id="elem_MDLMeshBuffer"><rect codeLine="55" fill="#F1F1F1" height="113.1875" id="MDLMeshBuffer" rx="2.5" ry="2.5" style="stroke:#181818;stroke-width:0.5;" width="276" x="631" y="527"/><ellipse cx="708.25" cy="543" fill="#ADD1B2" rx="11" ry="11" style="stroke:#181818;stroke-width:1.0;"/><path d="M710.5938,538.6719 C709.6563,538.2344 709.0625,538.0938 708.1875,538.0938 C705.5625,538.0938 703.5625,540.1719 703.5625,542.8906 L703.5625,544.0156 C703.5625,546.5938 705.6719,548.4844 708.5625,548.4844 C709.7813,548.4844 710.9375,548.1875 711.6875,547.6406 C712.2656,547.2344 712.5938,546.7813 712.5938,546.3906 C712.5938,545.9375 712.2031,545.5469 711.7344,545.5469 C711.5156,545.5469 711.3125,545.625 711.125,545.8125 C710.6719,546.2969 710.6719,546.2969 710.4844,546.3906 C710.0625,546.6563 709.375,546.7813 708.6094,546.7813 C706.5625,546.7813 705.2656,545.6875 705.2656,543.9844 L705.2656,542.8906 C705.2656,541.1094 706.5156,539.7969 708.25,539.7969 C708.8281,539.7969 709.4375,539.9531 709.9063,540.2031 C710.3906,540.4844 710.5625,540.7031 710.6563,541.1094 C710.7188,541.5156 710.75,541.6406 710.8906,541.7656 C711.0313,541.9063 711.2656,542.0156 711.4844,542.0156 C711.75,542.0156 712.0156,541.875 712.1875,541.6563 C712.2969,541.5 712.3281,541.3125 712.3281,540.8906 L712.3281,539.4688 C712.3281,539.0313 712.3125,538.9063 712.2188,538.75 C712.0625,538.4844 711.7813,538.3438 711.4844,538.3438 C711.1875,538.3438 710.9844,538.4375 710.7656,538.75 L710.5938,538.6719 Z " fill="#000000"/><text fill="#000000" font-family="sans-serif" font-size="14" lengthAdjust="spacing" textLength="113" x="728.75" y="547.8467">MDLMeshBuffer</text><line style="stroke:#181818;stroke-width:0.5;" x1="632" x2="906" y1="559" y2="559"/><ellipse cx="642" cy="572.6484" fill="none" rx="3" ry="3" style="stroke:#038048;stroke-width:1.0;"/><text fill="#000000" font-family="sans-serif" font-size="14" lengthAdjust="spacing" textLength="250" x="651" y="575.9951">allocator: MDLMeshBufferAllocator</text><ellipse cx="642" cy="588.9453" fill="none" rx="3" ry="3" style="stroke:#038048;stroke-width:1.0;"/><text fill="#000000" font-family="sans-serif" font-size="14" lengthAdjust="spacing" textLength="76" x="651" y="592.292">length: Int</text><ellipse cx="642" cy="605.2422" fill="none" rx="3" ry="3" style="stroke:#038048;stroke-width:1.0;"/><text fill="#000000" font-family="sans-serif" font-size="14" lengthAdjust="spacing" textLength="192" x="651" y="608.5889">type: MDLMeshBufferType</text><ellipse cx="642" cy="621.5391" fill="none" rx="3" ry="3" style="stroke:#038048;stroke-width:1.0;"/><text fill="#000000" font-family="sans-serif" font-size="14" lengthAdjust="spacing" textLength="194" x="651" y="624.8857">zone: MDLMeshBufferZone</text><line style="stroke:#181818;stroke-width:0.5;" x1="632" x2="906" y1="632.1875" y2="632.1875"/></g><!--link MTKMesh to MTKSubmesh--><g id="link_MTKMesh_MTKSubmesh"><path codeLine="30" d="M208.916,203.237 C199.668,230.632 191.3091,255.3982 182.2881,282.1212 " fill="none" id="MTKMesh-to-MTKSubmesh" style="stroke:#181818;stroke-width:1.0;"/><polygon fill="#181818" points="180.369,287.806,187.0375,280.5581,181.9682,283.0686,179.4577,277.9994,180.369,287.806" style="stroke:#181818;stroke-width:1.0;"/><text fill="#000000" font-family="sans-serif" font-size="13" lengthAdjust="spacing" textLength="74" x="200" y="246.0669">submeshes</text></g><!--link MTKMesh to MTKMeshBuffer--><g id="link_MTKMesh_MTKMeshBuffer"><path codeLine="31" d="M280.059,203.041 C291.098,227.069 301.389,253.974 307,280 C322.175,350.383 322.635,371.718 307,442 C301.095,468.544 291.897,490.3953 279.383,513.6523 " fill="none" id="MTKMesh-to-MTKMeshBuffer" style="stroke:#181818;stroke-width:1.0;"/><polygon fill="#181818" points="276.54,518.936,284.327,512.9058,278.9092,514.5329,277.2821,509.1151,276.54,518.936" style="stroke:#181818;stroke-width:1.0;"/><text fill="#000000" font-family="sans-serif" font-size="13" lengthAdjust="spacing" textLength="88" x="320" y="365.5669">vertexBuffers</text></g><!--link MTKSubmesh to MTKMeshBuffer--><g id="link_MTKSubmesh_MTKMeshBuffer"><path codeLine="32" d="M182.195,434.2 C192.083,461.455 201.2086,486.6058 210.7996,513.0408 " fill="none" id="MTKSubmesh-to-MTKMeshBuffer" style="stroke:#181818;stroke-width:1.0;"/><polygon fill="#181818" points="212.846,518.681,213.5366,508.8564,211.1407,513.9808,206.0163,511.5849,212.846,518.681" style="stroke:#181818;stroke-width:1.0;"/><text fill="#000000" font-family="sans-serif" font-size="13" lengthAdjust="spacing" textLength="74" x="202" y="485.0669">indexBuffer</text></g><!--link MDLMesh to MDLSubmesh--><g id="link_MDLMesh_MDLSubmesh"><path codeLine="62" d="M702.672,195.073 C693.616,221.902 685.206,246.8162 675.924,274.3132 " fill="none" id="MDLMesh-to-MDLSubmesh" style="stroke:#181818;stroke-width:1.0;"/><polygon fill="#181818" points="674.005,279.998,680.6734,272.7501,675.6042,275.2606,673.0936,270.1914,674.005,279.998" style="stroke:#181818;stroke-width:1.0;"/><text fill="#000000" font-family="sans-serif" font-size="13" lengthAdjust="spacing" textLength="74" x="690" y="246.0669">submeshes</text></g><!--link MDLMesh to MDLMeshBuffer--><g id="link_MDLMesh_MDLMeshBuffer"><path codeLine="63" d="M772.239,195.345 C785.897,221.079 799.093,250.906 806,280 C827.469,370.427 820.113,398.489 799,489 C796.134,501.286 794.209,508.5542 790.374,520.8232 " fill="none" id="MDLMesh-to-MDLMeshBuffer" style="stroke:#181818;stroke-width:1.0;"/><polygon fill="#181818" points="788.584,526.55,795.0869,519.1532,790.0757,521.7777,787.4512,516.7665,788.584,526.55" style="stroke:#181818;stroke-width:1.0;"/><text fill="#000000" font-family="sans-serif" font-size="13" lengthAdjust="spacing" textLength="88" x="819" y="365.5669">vertexBuffers</text></g><!--link MDLSubmesh to MDLMeshBuffer--><g id="link_MDLSubmesh_MDLMeshBuffer"><path codeLine="64" d="M691.39,442.229 C706.924,470.305 721.1082,495.942 735.2872,521.568 " fill="none" id="MDLSubmesh-to-MDLMeshBuffer" style="stroke:#181818;stroke-width:1.0;"/><polygon fill="#181818" points="738.192,526.818,737.3347,517.0065,735.7713,522.443,730.3348,520.8796,738.192,526.818" style="stroke:#181818;stroke-width:1.0;"/><text fill="#000000" font-family="sans-serif" font-size="13" lengthAdjust="spacing" textLength="74" x="716" y="485.0669">indexBuffer</text></g><!--SRC=[dLFBJiCm4BpdAtm4GN_01wg6IAXg8f1QSG1nS9DDQk7OKUAK5jH_ntarcuVIWc-U7QztTdSIvd-o28W7ceaLr-J78kRuWcKPyJOh3x9TZHNdZcJvDZOOP9Iyc_YwkduWnXvI3GSx3qD8QrQHfGA6H0SoF-M9LYar7xglFN30VrIvr9GifKOXoMAWPArJBYC4SydrJL4VlGzWptsWjoXQYGnpwHC9NrwfwiP0e16zv9-iRbTgrPt6S1aqgYdfQEwJHXMKaSqnWR8Bo-Q66AME9lDbxKdAOwxv7iv9Np0oggkjkIED2Q5yLay8aHODZhZRSmVSWNeLXaLpUye5o4Zl-gYkgqRVzSjkrdCsUy13eUsEZj6GHjhTrORT91fxWAPicJAInZug0B5yxhh7SQVTuxZNkAVASfLxd7-w1yyNVpSwNvCWC9jcgqF9NXnujX0yaX3ORMXakyvg9ro3F_-pQvpADJRN3YGQEoG25ODEZsVY4mBmpgb42HKTAQfsKsDpx4Ic8ULCL1NNb_cK9VkjkC9ebmOnQHlyk2VoMya-uyr07MFLcriQe9tRm5XTsYLZjOd67c1ZMQTV]--></g></svg>
